<?xml version="1.0" encoding="utf-8"?>
<!-- Generator: Adobe Illustrator 28.2.0, SVG Export Plug-In . SVG Version: 6.00 Build 0)  -->
<svg version="1.1" id="Vrstva_1" xmlns="http://www.w3.org/2000/svg" xmlns:xlink="http://www.w3.org/1999/xlink" x="0px" y="0px"
	 viewBox="0 0 87.7 21.4" style="enable-background:new 0 0 87.7 21.4;" xml:space="preserve">
<path d="M58,20c-2.3,0-4.1-0.8-5.6-2.4l2.4-2.2c1,1.1,2,1.7,3.2,1.7c1.2,0,1.9-0.6,1.9-1.4c0-0.7-0.3-1.1-2.5-1.6
	c-3.6-0.9-4.2-2.5-4.2-4.2c0-2.4,1.9-4.1,5-4.1c2.2,0,3.6,0.5,5,2.3l-2.5,1.9c-0.7-1-1.5-1.5-2.4-1.5c-1,0-1.7,0.4-1.7,1.2
	c0,0.5,0.2,0.9,1.8,1.3c3.9,1,4.8,2.5,4.8,4.5C63.3,18.1,61,20,58,20z"/>
<path d="M49.3,19.7c-2.7,0-4.1-1.2-4.1-4.2V9.2h-1.9v-3h1.9V3.4l3.5-0.4v3.1h2.9v3h-2.9v6.2c0,0.9,0.4,1.2,1.1,1.2h1.5v3.1H49.3z"/>
<path d="M37.8,19.7V6.2h3.5v13.5H37.8z M37.5,3c0-1.1,0.9-2.1,2.1-2.1c1.2,0,2.1,0.9,2.1,2.1c0,1.2-0.9,2.1-2.1,2.1
	C38.4,5,37.5,4.1,37.5,3z"/>
<path d="M28.8,20c-2.4,0-3.6-1-4.4-2.5v2.2H21v-19h3.5v7.5c0.7-1.4,2-2.4,4.3-2.4c3.7,0,6.7,3.2,6.7,7.1C35.5,16.9,32.5,20,28.8,20z
	 M24.4,13c0,2.1,1.5,3.9,3.8,3.9c2.2,0,3.7-1.8,3.7-3.9c0-2.1-1.5-3.9-3.7-3.9C25.9,9,24.4,10.9,24.4,13z"/>
<circle cx="5.9" cy="11.7" r="5"/>
<g>
	<path d="M81,20.4h-7c-2.9,0-5.2-2.4-5.2-5.2v-7c0-2.9,2.4-5.2,5.2-5.2h7c2.9,0,5.2,2.4,5.2,5.2v7C86.2,18,83.9,20.4,81,20.4z M74,4
		c-2.3,0-4.2,1.9-4.2,4.2v7c0,2.3,1.9,4.2,4.2,4.2h7c2.3,0,4.2-1.9,4.2-4.2v-7C85.1,5.8,83.3,4,81,4H74z"/>
</g>
<g>
	<path d="M77.8,8.1h1.1v4.8c0,0.5-0.1,1-0.4,1.4c-0.2,0.4-0.6,0.7-1,0.9c-0.4,0.2-0.9,0.3-1.5,0.3c-0.6,0-1.1-0.1-1.5-0.3
		c-0.4-0.2-0.8-0.5-1-0.9c-0.2-0.4-0.4-0.8-0.4-1.4V8.1h1.1v4.7c0,0.3,0.1,0.6,0.2,0.9c0.1,0.3,0.4,0.5,0.6,0.6
		c0.3,0.1,0.6,0.2,1,0.2c0.4,0,0.7-0.1,1-0.2c0.3-0.1,0.5-0.4,0.6-0.6c0.1-0.3,0.2-0.6,0.2-0.9V8.1z M81.7,8.1v7.3h-1.1V8.1H81.7z"
		/>
</g>
</svg>
