<svg width="170" height="50" viewBox="0 0 170 50" fill="none" xmlns="http://www.w3.org/2000/svg">
<path d="M13.8889 13.8889H25V22.2222H13.8889V13.8889Z" fill="url(#paint0_linear_351_123)"/>
<path d="M36.1111 36.1111V27.7778H13.8889V36.1111H36.1111Z" fill="url(#paint1_linear_351_123)"/>
<path fill-rule="evenodd" clip-rule="evenodd" d="M38.8889 0H0V50H50V13.8889H38.8889V0ZM8.33333 41.6667V8.33333H30.5556V22.2222H41.6667V41.6667H8.33333Z" fill="url(#paint2_linear_351_123)"/>
<path d="M100.75 4.62061H108.888V11.5532H100.75V4.62061Z" fill="url(#paint3_linear_351_123)"/>
<path fill-rule="evenodd" clip-rule="evenodd" d="M75.1912 4.63818H67.1001V44.9033H75.1912V42.1103C76.9507 43.8779 79.6428 45.3792 83.663 45.3792C87.5699 45.3792 90.7242 43.9503 92.898 41.5522C95.0669 39.1596 96.228 35.8382 96.228 32.1003V26.1034C96.228 22.1328 95.058 18.7377 92.8678 16.3296C90.6726 13.9163 87.4926 12.5389 83.5679 12.5389C79.5008 12.5389 76.8393 14.087 75.1912 15.9132V4.63818ZM75.1912 26.4365C75.1912 24.564 75.694 22.8626 76.7218 21.638C77.739 20.426 79.312 19.6305 81.5689 19.6305C83.8733 19.6305 85.4316 20.4376 86.424 21.6512C87.4287 22.8798 87.899 24.5816 87.899 26.4365V31.4816C87.899 33.3614 87.4283 35.0622 86.4246 36.284C85.4333 37.4908 83.8755 38.2876 81.5689 38.2876C79.2847 38.2876 77.7128 37.5016 76.7034 36.3033C75.6832 35.0921 75.1912 33.404 75.1912 31.5292V26.4365Z" fill="url(#paint4_linear_351_123)"/>
<path d="M100.75 14.6841H108.888V44.9031H100.75V14.6841Z" fill="url(#paint5_linear_351_123)"/>
<path d="M129.402 4.63818H121.302L121.311 5.12278C121.358 7.72974 121.127 9.65273 120.486 10.9473C120.17 11.5832 119.759 12.0603 119.234 12.3971C118.71 12.7329 118.046 12.9465 117.199 13.0148H113.458V20.154H120.644V35.3844C120.644 38.3363 121.083 40.7389 122.428 42.4006C123.793 44.087 125.998 44.9033 129.259 44.9033H137.683V37.7641H131.115C130.127 37.7641 129.596 37.5511 129.265 37.0885C128.897 36.5732 128.688 35.6406 128.688 33.9565V20.154H137.683V13.0148H127.504C128.051 12.4326 128.445 11.6484 128.725 10.7672C129.223 9.19905 129.402 7.20247 129.402 5.11413V4.63818Z" fill="url(#paint6_linear_351_123)"/>
<path d="M155.484 12.5386C150.524 12.5386 147.206 13.5963 145.123 15.3515C143.024 17.1192 142.252 19.5306 142.252 22.0575C142.252 24.0894 142.75 25.9561 144.163 27.4851C145.565 29.0018 147.814 30.1269 151.192 30.8038L157.642 32.3687C159.175 32.8412 160.188 33.2827 160.817 33.7956C161.411 34.2798 161.671 34.8329 161.671 35.622C161.671 36.0968 161.595 36.4867 161.437 36.8089C161.281 37.1257 161.033 37.4049 160.64 37.6417C159.829 38.1303 158.418 38.4301 156.055 38.4301C153.785 38.4301 152.231 38.1412 151.248 37.4917C150.316 36.8751 149.82 35.8753 149.82 34.1942V32.6235H141.491V34.2417C141.491 37.8004 142.445 40.6293 144.814 42.5481C147.16 44.4472 150.804 45.3789 156.007 45.3789C161.385 45.3789 164.899 44.3253 167.071 42.488C169.262 40.6345 170 38.0599 170 35.2412C170 33.1595 169.596 31.2875 168.354 29.7433C167.116 28.2039 165.101 27.0592 162.025 26.3079L162.022 26.307L154.176 24.2622L154.173 24.2615C152.78 23.9074 151.87 23.5447 151.312 23.128C150.791 22.7379 150.581 22.3055 150.581 21.7243C150.581 21.3266 150.697 21.0103 150.9 20.7483C151.108 20.4797 151.425 20.2455 151.857 20.0532C152.731 19.6648 153.986 19.4874 155.436 19.4874C157.42 19.4874 158.806 19.7282 159.687 20.2631C160.513 20.7647 160.957 21.5651 160.957 22.9142V24.2945H169.286V22.8666C169.286 19.9198 168.448 17.3022 166.238 15.4352C164.045 13.5824 160.581 12.5386 155.484 12.5386Z" fill="url(#paint7_linear_351_123)"/>
<defs>
<linearGradient id="paint0_linear_351_123" x1="206.757" y1="-1.28606e-06" x2="164.681" y2="109.783" gradientUnits="userSpaceOnUse">
<stop stop-color="#91AEBB"/>
<stop offset="1" stop-color="white"/>
</linearGradient>
<linearGradient id="paint1_linear_351_123" x1="206.757" y1="-1.28606e-06" x2="164.681" y2="109.783" gradientUnits="userSpaceOnUse">
<stop stop-color="#91AEBB"/>
<stop offset="1" stop-color="white"/>
</linearGradient>
<linearGradient id="paint2_linear_351_123" x1="206.757" y1="-1.28606e-06" x2="164.681" y2="109.783" gradientUnits="userSpaceOnUse">
<stop stop-color="#91AEBB"/>
<stop offset="1" stop-color="white"/>
</linearGradient>
<linearGradient id="paint3_linear_351_123" x1="206.757" y1="-1.28606e-06" x2="164.681" y2="109.783" gradientUnits="userSpaceOnUse">
<stop stop-color="#91AEBB"/>
<stop offset="1" stop-color="white"/>
</linearGradient>
<linearGradient id="paint4_linear_351_123" x1="206.757" y1="-1.28606e-06" x2="164.681" y2="109.783" gradientUnits="userSpaceOnUse">
<stop stop-color="#91AEBB"/>
<stop offset="1" stop-color="white"/>
</linearGradient>
<linearGradient id="paint5_linear_351_123" x1="206.757" y1="-1.28606e-06" x2="164.681" y2="109.783" gradientUnits="userSpaceOnUse">
<stop stop-color="#91AEBB"/>
<stop offset="1" stop-color="white"/>
</linearGradient>
<linearGradient id="paint6_linear_351_123" x1="206.757" y1="-1.28606e-06" x2="164.681" y2="109.783" gradientUnits="userSpaceOnUse">
<stop stop-color="#91AEBB"/>
<stop offset="1" stop-color="white"/>
</linearGradient>
<linearGradient id="paint7_linear_351_123" x1="206.757" y1="-1.28606e-06" x2="164.681" y2="109.783" gradientUnits="userSpaceOnUse">
<stop stop-color="#91AEBB"/>
<stop offset="1" stop-color="white"/>
</linearGradient>
</defs>
</svg>
